<?xml version="1.0" standalone="no"?>
<!DOCTYPE svg PUBLIC "-//W3C//DTD SVG 20010904//EN"
 "http://www.w3.org/TR/2001/REC-SVG-20010904/DTD/svg10.dtd">
<svg version="1.0" xmlns="http://www.w3.org/2000/svg"
 width="512.000000pt" height="512.000000pt" viewBox="0 0 512.000000 512.000000"
 preserveAspectRatio="xMidYMid meet">
<metadata>
Created by potrace 1.11, written by Peter Selinger 2001-2013
</metadata>
<g transform="translate(0.000000,512.000000) scale(0.100000,-0.100000)"
fill="#000000" stroke="none">
<path d="M1343 4666 c-80 -44 -102 -96 -104 -235 0 -77 -4 -111 -12 -112 -7 0
-59 -2 -117 -3 -58 -2 -121 -6 -140 -11 -99 -22 -198 -103 -246 -202 l-29 -58
0 -1560 0 -1560 24 -50 c36 -74 78 -123 137 -161 106 -68 13 -64 1655 -64 963
0 1505 4 1540 10 116 22 211 96 265 205 l29 60 3 1525 c2 1123 0 1539 -8 1580
-22 102 -95 197 -188 244 -65 33 -100 39 -227 42 -60 1 -113 3 -116 3 -4 1 -7
48 -7 105 0 123 -19 177 -77 222 -30 22 -50 29 -99 32 -53 3 -66 0 -104 -25
-67 -44 -86 -94 -87 -225 0 -64 -4 -108 -10 -109 -35 -4 -1815 -3 -1816 1 -1
3 -2 52 -4 110 -3 143 -31 203 -111 236 -40 17 -121 17 -151 0z m2643 -2376
c0 -1196 2 -1154 -54 -1214 -56 -59 24 -56 -1410 -56 -830 -1 -1328 3 -1344 9
-42 16 -96 70 -109 109 -10 29 -13 279 -14 1150 l0 1112 1465 -2 1465 -3 1
-1105z"/>
<path d="M1940 2612 c-179 -60 -273 -228 -238 -425 10 -52 44 -126 75 -163 59
-67 156 -111 261 -118 99 -6 180 20 255 84 18 15 24 50 8 50 -4 0 -28 16 -52
35 -52 41 -56 42 -85 14 -12 -11 -39 -27 -60 -34 -123 -42 -243 57 -249 204
-7 186 173 293 317 189 14 -10 24 -5 65 27 26 22 51 44 55 49 11 16 -16 40
-78 71 -74 37 -191 44 -274 17z"/>
<path d="M2418 2610 c-10 -4 -13 -76 -11 -335 0 -181 1 -336 2 -342 1 -10 51
-13 216 -13 165 0 215 3 216 13 1 15 1 85 0 110 -1 15 -15 17 -141 17 l-140 0
0 275 c0 151 -3 275 -7 276 -30 4 -125 3 -135 -1z"/>
<path d="M2783 2610 c-15 -4 -18 -15 -17 -62 0 -32 3 -60 6 -63 3 -3 48 -7 99
-8 l94 -2 0 -275 0 -275 77 -3 76 -3 1 258 c0 142 0 268 0 281 1 21 5 22 59
21 31 -1 75 -1 97 0 l40 1 1 65 c0 39 -4 65 -10 66 -38 4 -508 3 -523 -1z"/>
</g>
</svg>
