<?xml version="1.0" standalone="no"?>
<!DOCTYPE svg PUBLIC "-//W3C//DTD SVG 20010904//EN"
 "http://www.w3.org/TR/2001/REC-SVG-20010904/DTD/svg10.dtd">
<svg version="1.0" xmlns="http://www.w3.org/2000/svg"
 width="144.000000pt" height="144.000000pt" viewBox="0 0 144.000000 144.000000"
 preserveAspectRatio="xMidYMid meet">
<metadata>
Created by potrace 1.11, written by Peter Selinger 2001-2013
</metadata>
<g transform="translate(0.000000,144.000000) scale(0.100000,-0.100000)"
fill="#000000" stroke="none">
<path d="M360 1261 l0 -59 -56 -4 c-46 -4 -61 -10 -87 -37 l-32 -31 0 -470 0
-470 33 -32 32 -33 470 0 470 0 32 33 33 32 3 456 c2 401 1 459 -13 489 -20
40 -67 65 -124 65 l-41 0 0 60 0 60 -60 0 -60 0 0 -60 0 -60 -240 0 -240 0 0
60 0 60 -60 0 -60 0 0 -59z m557 -211 c2 -13 9 -29 15 -35 7 -7 9 -7 5 1 -3 6
-8 22 -11 36 l-4 26 107 0 107 -1 2 -57 1 -58 -117 1 c-72 0 -120 4 -124 11
-5 8 -8 8 -8 0 0 -5 -21 -11 -46 -13 -27 -1 -43 2 -40 7 3 6 -1 12 -9 15 -9 4
-12 1 -9 -7 4 -11 -29 -13 -168 -13 -146 0 -175 3 -186 16 -10 14 -11 14 -7 1
5 -13 -6 -16 -60 -17 -39 -1 -63 2 -60 8 4 5 11 6 17 3 7 -4 8 -2 4 5 -4 6
-11 9 -16 6 -4 -3 -8 17 -7 44 l0 49 305 -2 305 -1 4 -25z m223 -510 l0 -300
-420 0 -420 0 0 300 0 300 420 0 420 0 0 -300z"/>
<path d="M515 1040 c0 -15 5 -27 10 -27 6 0 10 12 10 27 0 15 -4 27 -10 27 -5
0 -10 -12 -10 -27z"/>
<path d="M1084 1055 c-4 -8 -11 -12 -17 -8 -6 3 -7 1 -3 -5 11 -18 23 -14 29
8 6 23 -1 27 -9 5z"/>
<path d="M310 1039 c0 -5 5 -7 10 -4 6 3 10 8 10 11 0 2 -4 4 -10 4 -5 0 -10
-5 -10 -11z"/>
<path d="M347 1039 c7 -7 15 -10 18 -7 3 3 -2 9 -12 12 -14 6 -15 5 -6 -5z"/>
<path d="M434 1035 c1 -8 6 -18 11 -22 4 -5 5 -2 0 6 -6 11 -4 13 8 8 23 -9
21 0 -2 13 -15 7 -19 7 -17 -5z"/>
<path d="M496 1033 c-6 -14 -5 -15 5 -6 7 7 10 15 7 18 -3 3 -9 -2 -12 -12z"/>
<path d="M566 1038 c3 -5 9 -7 12 -4 3 3 12 0 21 -6 13 -10 14 -10 4 2 -15 16
-46 23 -37 8z"/>
<path d="M710 1040 c0 -5 5 -10 11 -10 5 0 7 5 4 10 -3 6 -8 10 -11 10 -2 0
-4 -4 -4 -10z"/>
<path d="M774 1038 c-5 -7 -2 -8 6 -3 9 6 12 4 8 -6 -4 -10 1 -15 16 -16 11 0
15 1 8 4 -6 3 -10 8 -7 13 3 4 -2 10 -10 14 -8 3 -17 0 -21 -6z"/>
<path d="M873 1032 c2 -12 9 -28 17 -35 10 -10 11 -9 4 3 -5 8 -9 21 -10 28
-2 8 -5 17 -8 20 -4 3 -5 -4 -3 -16z"/>
<path d="M990 1040 c0 -5 5 -10 11 -10 5 0 7 5 4 10 -3 6 -8 10 -11 10 -2 0
-4 -4 -4 -10z"/>
<path d="M1116 1033 c-6 -14 -5 -15 5 -6 7 7 10 15 7 18 -3 3 -9 -2 -12 -12z"/>
<path d="M630 1030 c-11 -7 -11 -10 -2 -10 7 0 10 -4 7 -10 -4 -6 1 -7 11 -3
11 4 13 8 6 11 -7 2 -10 8 -6 13 7 11 3 11 -16 -1z"/>
<path d="M324 1019 c-3 -6 -2 -15 4 -21 6 -6 12 -6 17 3 6 8 4 10 -5 4 -10 -6
-12 -4 -7 8 7 19 2 23 -9 6z"/>
<path d="M386 1015 c5 -11 4 -16 -3 -12 -5 3 -10 0 -10 -8 0 -10 4 -12 12 -5
7 5 15 7 18 3 4 -3 7 -2 7 4 0 6 -7 16 -15 23 -13 11 -14 10 -9 -5z"/>
<path d="M557 1013 c-12 -12 -7 -21 16 -26 20 -5 20 -5 5 7 -10 7 -15 16 -11
19 3 4 4 7 1 7 -2 0 -8 -3 -11 -7z"/>
<path d="M734 999 c0 -12 4 -15 12 -9 6 6 14 7 17 3 4 -3 7 -2 7 4 0 6 -8 13
-18 15 -12 4 -18 -1 -18 -13z"/>
<path d="M1022 1007 c10 -8 15 -16 12 -19 -2 -3 2 -8 10 -11 11 -4 13 -1 9 10
-4 10 -2 14 4 10 5 -3 10 1 10 9 0 10 -4 11 -10 5 -7 -7 -17 -7 -31 0 -19 9
-19 9 -4 -4z"/>
<path d="M470 1000 c0 -5 5 -10 10 -10 6 0 10 5 10 10 0 6 -4 10 -10 10 -5 0
-10 -4 -10 -10z"/>
<path d="M682 1001 c-11 -6 -9 -9 6 -13 15 -4 19 -2 15 8 -6 16 -4 16 -21 5z"/>
<path d="M842 1001 c-11 -6 -9 -9 6 -13 15 -4 19 -2 15 8 -6 16 -4 16 -21 5z"/>
<path d="M950 1000 c0 -4 7 -13 15 -20 13 -11 14 -10 9 5 -6 14 -4 16 7 10 8
-5 11 -4 6 0 -10 12 -37 15 -37 5z"/>
<path d="M1094 999 c-5 -8 -3 -9 6 -4 9 6 12 4 8 -7 -4 -9 0 -15 8 -15 18 0
18 11 0 26 -11 9 -16 9 -22 0z"/>
<path d="M720 510 l0 -150 150 0 150 0 0 150 0 150 -150 0 -150 0 0 -150z"/>
</g>
</svg>
