<?xml version="1.0" standalone="no"?>
<!DOCTYPE svg PUBLIC "-//W3C//DTD SVG 20010904//EN"
 "http://www.w3.org/TR/2001/REC-SVG-20010904/DTD/svg10.dtd">
<svg version="1.0" xmlns="http://www.w3.org/2000/svg"
 width="512.000000pt" height="512.000000pt" viewBox="0 0 512.000000 512.000000"
 preserveAspectRatio="xMidYMid meet">
<metadata>
Created by potrace 1.11, written by Peter Selinger 2001-2013
</metadata>
<g transform="translate(0.000000,512.000000) scale(0.100000,-0.100000)"
fill="#000000" stroke="none">
<path d="M1690 4066 c-69 -30 -90 -74 -90 -186 l0 -78 -85 -1 c-96 -1 -124 -6
-176 -32 -53 -26 -99 -76 -126 -136 l-24 -53 0 -1158 c0 -1060 1 -1160 16
-1197 28 -66 82 -124 144 -153 l56 -27 1160 0 1160 0 56 27 c80 40 137 110
154 188 10 45 10 2250 1 2315 -14 93 -100 188 -191 214 -22 6 -79 11 -127 11
l-88 0 0 79 c0 44 -5 92 -11 108 -11 31 -66 83 -89 84 -8 0 -24 2 -34 4 -34 7
-95 -25 -117 -62 -17 -27 -23 -54 -25 -112 -1 -42 -3 -82 -3 -89 -1 -10 -140
-12 -688 -10 l-686 3 -2 85 c-2 97 -19 141 -64 165 -39 20 -91 25 -121 11z
m1977 -1793 c0 -676 -3 -844 -14 -870 -7 -18 -30 -44 -50 -58 l-38 -25 -993 0
c-1091 0 -1037 -3 -1083 61 l-24 34 -1 848 -1 847 1102 0 1102 0 0 -837z"/>
</g>
</svg>
